<svg id="Layer_1" data-name="Layer 1" xmlns="http://www.w3.org/2000/svg" viewBox="0 0 340.16 99.21"><defs><style>.cls-1{fill:#510c76;}</style></defs><title>Soldered_logo_</title><path class="cls-1" d="M94.25,68.29a19.72,19.72,0,0,1-6.77-1.22,17.46,17.46,0,0,1-6.09-3.79l4.43-5.43A14,14,0,0,0,94.46,61a5.9,5.9,0,0,0,3.29-.73,2.41,2.41,0,0,0,1.08-2.11,2.1,2.1,0,0,0-.6-1.58,5.78,5.78,0,0,0-1.66-1.05c-.71-.32-1.55-.67-2.53-1.06l-4.37-1.84a13.62,13.62,0,0,1-3.43-2,9.8,9.8,0,0,1-2.55-3.14,9.3,9.3,0,0,1-1-4.35,9.06,9.06,0,0,1,1.61-5.24,11.54,11.54,0,0,1,4.42-3.77,14.37,14.37,0,0,1,6.51-1.42,16.86,16.86,0,0,1,6,1.11A15.19,15.19,0,0,1,106.42,37l-4.37,5.48a14.42,14.42,0,0,0-3.45-1.89A9.5,9.5,0,0,0,95.25,40a5.37,5.37,0,0,0-2.92.69,2.21,2.21,0,0,0-1.08,2,2.08,2.08,0,0,0,.63,1.53,5.29,5.29,0,0,0,1.82,1.1l2.71,1.11,4.27,1.69a12.76,12.76,0,0,1,3.61,2.13,8.86,8.86,0,0,1,2.31,3.06,9.77,9.77,0,0,1,.82,4.18,9.88,9.88,0,0,1-1.53,5.35,11,11,0,0,1-4.47,4A15.57,15.57,0,0,1,94.25,68.29Z"/><path class="cls-1" d="M125.7,68.29a15.73,15.73,0,0,1-8.24-2.14A14.31,14.31,0,0,1,111.93,60a21.61,21.61,0,0,1-2-9.62,21,21,0,0,1,2-9.56,14.08,14.08,0,0,1,5.53-6,17.38,17.38,0,0,1,16.49,0,14.15,14.15,0,0,1,5.53,6,21,21,0,0,1,2,9.56,21.61,21.61,0,0,1-2,9.62A14.37,14.37,0,0,1,134,66.15,15.75,15.75,0,0,1,125.7,68.29Zm0-7.28a5.85,5.85,0,0,0,3.82-1.29A7.92,7.92,0,0,0,132,56a16.92,16.92,0,0,0,.85-5.67,16.16,16.16,0,0,0-.85-5.61,7.59,7.59,0,0,0-2.45-3.53,6.5,6.5,0,0,0-7.64,0,7.73,7.73,0,0,0-2.45,3.53,16.41,16.41,0,0,0-.84,5.61,17.19,17.19,0,0,0,.84,5.67,8.07,8.07,0,0,0,2.45,3.68A5.89,5.89,0,0,0,125.7,61Z"/><path class="cls-1" d="M171.12,67.65V33.35h10a22,22,0,0,1,9.14,1.77,13.08,13.08,0,0,1,6.09,5.51,19.33,19.33,0,0,1,2.16,9.74,19.73,19.73,0,0,1-2.16,9.78,13.61,13.61,0,0,1-6,5.66,20,20,0,0,1-8.78,1.84Zm8.43-6.74h1a11.65,11.65,0,0,0,4.8-.95,7,7,0,0,0,3.32-3.24,13.84,13.84,0,0,0,1.21-6.35,13.36,13.36,0,0,0-1.21-6.27A6.83,6.83,0,0,0,185.35,41a12.33,12.33,0,0,0-4.8-.89h-1Z"/><path class="cls-1" d="M202.32,67.65V33.35h21.86v7.06H210.75v6.12h11.43v7.06H210.75v7h14v7.06Z"/><path class="cls-1" d="M257.22,67.65,249.6,54.1a11,11,0,0,0,4-3.31,10.66,10.66,0,0,0,1.87-6.53,10.37,10.37,0,0,0-1.87-6.59,10,10,0,0,0-4.93-3.34,21.94,21.94,0,0,0-6.69-1h-12.7v34.3h8.43V55.75h3.9l6.22,11.9ZM237.72,40h3.64a8.51,8.51,0,0,1,4.34.9,3.54,3.54,0,0,1,1.51,3.32,4.3,4.3,0,0,1-1.51,3.58,6.74,6.74,0,0,1-4.34,1.21h-3.64Z"/><path class="cls-1" d="M260.48,67.65V33.35h21.87v7.06H268.91v6.12h11.44v7.06H268.91v7h14v7.06Z"/><path class="cls-1" d="M286.93,67.65V33.35h10A22,22,0,0,1,306,35.12a13,13,0,0,1,6.09,5.51,19.33,19.33,0,0,1,2.16,9.74,19.73,19.73,0,0,1-2.16,9.78,13.55,13.55,0,0,1-6,5.66,19.94,19.94,0,0,1-8.77,1.84Zm8.43-6.74h1a11.62,11.62,0,0,0,4.8-.95,7,7,0,0,0,3.32-3.24,13.71,13.71,0,0,0,1.21-6.35,13.24,13.24,0,0,0-1.21-6.27A6.83,6.83,0,0,0,301.16,41a12.3,12.3,0,0,0-4.8-.89h-1Z"/><polygon class="cls-1" points="158.14 59.77 153.52 55.16 153.52 33.35 145.09 33.35 145.09 58.8 153.85 67.56 167.06 67.56 167.06 59.77 158.14 59.77"/><path class="cls-1" d="M64.24,29.51h0a6.16,6.16,0,0,1-3.08-.8L48.07,21.17,28.48,32.47v19l20.6,11.9.48-.25a5.87,5.87,0,0,0,3.13-4.9,6.29,6.29,0,0,0-3-5.24L37.26,46.32V37.41L48,31.13l9,5.28a5.76,5.76,0,0,1,2,2.08,6,6,0,0,0,10,.45,4.61,4.61,0,0,0,.29-.43h0l0-.06a6,6,0,0,0-5.15-8.94Z"/><path class="cls-1" d="M47.29,37a5.84,5.84,0,0,0-3.13,4.89,6.26,6.26,0,0,0,3,5.24L59.6,53.83v8.91L48.82,69l-9-5.28a5.89,5.89,0,0,1-2-2.07,5.94,5.94,0,0,0-10-.46,3.29,3.29,0,0,0-.28.44h0l0,.06a5.88,5.88,0,0,0-.8,3,6,6,0,0,0,5.95,6h0a6.16,6.16,0,0,1,3.08.8L48.78,79l19.59-11.3v-19L47.77,36.77Z"/></svg>