<svg id="Layer_1" data-name="Layer 1" xmlns="http://www.w3.org/2000/svg" viewBox="0 0 99.21 99.21"><defs><style>.cls-1{fill:#510c76;}</style></defs><title>Soldered_logo_</title><path class="cls-1" d="M65.42,29.51h0a6.16,6.16,0,0,1-3.08-.8L49.25,21.17,29.66,32.47v19l20.6,11.9.48-.25a5.87,5.87,0,0,0,3.13-4.9,6.27,6.27,0,0,0-3-5.24L38.44,46.32V37.41l10.77-6.28,9,5.28a5.76,5.76,0,0,1,2,2.08,6,6,0,0,0,10,.45,4.61,4.61,0,0,0,.29-.43h0l0-.06a6,6,0,0,0-5.15-8.94Z"/><path class="cls-1" d="M48.47,37a5.84,5.84,0,0,0-3.13,4.89,6.26,6.26,0,0,0,3,5.24l12.44,6.68v8.91L50,69l-9-5.28a5.89,5.89,0,0,1-2-2.07,5.94,5.94,0,0,0-10-.46,4.78,4.78,0,0,0-.29.44h0l0,.06a5.88,5.88,0,0,0-.8,3,6,6,0,0,0,5.95,6h0a6.16,6.16,0,0,1,3.08.8L50,79l19.59-11.3v-19L49,36.77Z"/></svg>